<mxfile host="app.diagrams.net" agent="Mozilla/5.0 (Windows NT 10.0; Win64; x64) AppleWebKit/537.36 (KHTML, like Gecko) Chrome/129.0.0.0 Safari/537.36" version="24.7.16">
  <diagram name="Página-1" id="yDoyC8_rOGxJ_YkKNDXm">
    <mxGraphModel dx="1707" dy="426" grid="1" gridSize="10" guides="1" tooltips="1" connect="1" arrows="1" fold="1" page="1" pageScale="1" pageWidth="827" pageHeight="1169" math="0" shadow="0">
      <root>
        <mxCell id="0" />
        <mxCell id="1" parent="0" />
        <mxCell id="2v5aTfsebNyCSrgBFrr8-1" value="INICIO&amp;nbsp;&lt;div&gt;(VERIFICAR PALIDROMO)&lt;/div&gt;" style="rounded=0;whiteSpace=wrap;html=1;" vertex="1" parent="1">
          <mxGeometry x="10" width="190" height="60" as="geometry" />
        </mxCell>
        <mxCell id="2v5aTfsebNyCSrgBFrr8-25" style="edgeStyle=orthogonalEdgeStyle;rounded=0;orthogonalLoop=1;jettySize=auto;html=1;exitX=0.5;exitY=1;exitDx=0;exitDy=0;entryX=0.5;entryY=0;entryDx=0;entryDy=0;" edge="1" parent="1" source="2v5aTfsebNyCSrgBFrr8-2" target="2v5aTfsebNyCSrgBFrr8-3">
          <mxGeometry relative="1" as="geometry" />
        </mxCell>
        <mxCell id="2v5aTfsebNyCSrgBFrr8-2" value="RECEBER PALAVRA DO USUARIO" style="rounded=0;whiteSpace=wrap;html=1;" vertex="1" parent="1">
          <mxGeometry x="10" y="90" width="190" height="60" as="geometry" />
        </mxCell>
        <mxCell id="2v5aTfsebNyCSrgBFrr8-24" style="edgeStyle=orthogonalEdgeStyle;rounded=0;orthogonalLoop=1;jettySize=auto;html=1;exitX=0.5;exitY=1;exitDx=0;exitDy=0;entryX=0.5;entryY=0;entryDx=0;entryDy=0;" edge="1" parent="1" source="2v5aTfsebNyCSrgBFrr8-3" target="2v5aTfsebNyCSrgBFrr8-4">
          <mxGeometry relative="1" as="geometry" />
        </mxCell>
        <mxCell id="2v5aTfsebNyCSrgBFrr8-3" value="QUEBRAR A PALAVRA POR LETRA&lt;div&gt;(ARRAY DE LETRA)&lt;/div&gt;" style="rounded=0;whiteSpace=wrap;html=1;" vertex="1" parent="1">
          <mxGeometry x="10" y="180" width="190" height="60" as="geometry" />
        </mxCell>
        <mxCell id="2v5aTfsebNyCSrgBFrr8-27" style="edgeStyle=orthogonalEdgeStyle;rounded=0;orthogonalLoop=1;jettySize=auto;html=1;exitX=0.5;exitY=1;exitDx=0;exitDy=0;entryX=0.5;entryY=0;entryDx=0;entryDy=0;" edge="1" parent="1" source="2v5aTfsebNyCSrgBFrr8-4" target="2v5aTfsebNyCSrgBFrr8-5">
          <mxGeometry relative="1" as="geometry" />
        </mxCell>
        <mxCell id="2v5aTfsebNyCSrgBFrr8-4" value="X = 1&amp;nbsp;&lt;div&gt;(PRIMEIRA LETRA)&lt;/div&gt;" style="rounded=0;whiteSpace=wrap;html=1;" vertex="1" parent="1">
          <mxGeometry x="10" y="280" width="190" height="60" as="geometry" />
        </mxCell>
        <mxCell id="2v5aTfsebNyCSrgBFrr8-5" value="LETRA X == X-1 ?" style="rhombus;whiteSpace=wrap;html=1;" vertex="1" parent="1">
          <mxGeometry x="10" y="370" width="190" height="80" as="geometry" />
        </mxCell>
        <mxCell id="2v5aTfsebNyCSrgBFrr8-19" style="edgeStyle=orthogonalEdgeStyle;rounded=0;orthogonalLoop=1;jettySize=auto;html=1;exitX=0.5;exitY=1;exitDx=0;exitDy=0;entryX=0;entryY=0.5;entryDx=0;entryDy=0;" edge="1" parent="1" source="2v5aTfsebNyCSrgBFrr8-7" target="2v5aTfsebNyCSrgBFrr8-18">
          <mxGeometry relative="1" as="geometry" />
        </mxCell>
        <mxCell id="2v5aTfsebNyCSrgBFrr8-7" value="NÃO É UM PALINDROMO" style="rounded=0;whiteSpace=wrap;html=1;" vertex="1" parent="1">
          <mxGeometry x="290" y="360" width="190" height="80" as="geometry" />
        </mxCell>
        <mxCell id="2v5aTfsebNyCSrgBFrr8-10" value="É UM PALINDROMO" style="rounded=0;whiteSpace=wrap;html=1;" vertex="1" parent="1">
          <mxGeometry x="280" y="590" width="190" height="80" as="geometry" />
        </mxCell>
        <mxCell id="2v5aTfsebNyCSrgBFrr8-28" value="NÃO" style="edgeStyle=orthogonalEdgeStyle;rounded=0;orthogonalLoop=1;jettySize=auto;html=1;exitX=0;exitY=0.5;exitDx=0;exitDy=0;entryX=0;entryY=0.5;entryDx=0;entryDy=0;" edge="1" parent="1" source="2v5aTfsebNyCSrgBFrr8-11" target="2v5aTfsebNyCSrgBFrr8-5">
          <mxGeometry relative="1" as="geometry" />
        </mxCell>
        <mxCell id="2v5aTfsebNyCSrgBFrr8-11" value="PALAVRA ACABOU?" style="rhombus;whiteSpace=wrap;html=1;" vertex="1" parent="1">
          <mxGeometry y="600" width="190" height="80" as="geometry" />
        </mxCell>
        <mxCell id="2v5aTfsebNyCSrgBFrr8-16" style="edgeStyle=orthogonalEdgeStyle;rounded=0;orthogonalLoop=1;jettySize=auto;html=1;exitX=0.5;exitY=1;exitDx=0;exitDy=0;entryX=0.5;entryY=0;entryDx=0;entryDy=0;" edge="1" parent="1" source="2v5aTfsebNyCSrgBFrr8-13" target="2v5aTfsebNyCSrgBFrr8-11">
          <mxGeometry relative="1" as="geometry" />
        </mxCell>
        <mxCell id="2v5aTfsebNyCSrgBFrr8-13" value="X = X+1:&lt;div&gt;OU&lt;/div&gt;&lt;div&gt;X++;&lt;/div&gt;" style="rounded=0;whiteSpace=wrap;html=1;" vertex="1" parent="1">
          <mxGeometry y="480" width="190" height="80" as="geometry" />
        </mxCell>
        <mxCell id="2v5aTfsebNyCSrgBFrr8-14" value="NÃO" style="edgeStyle=orthogonalEdgeStyle;rounded=0;orthogonalLoop=1;jettySize=auto;html=1;exitX=1;exitY=0.5;exitDx=0;exitDy=0;entryX=0.011;entryY=0.638;entryDx=0;entryDy=0;entryPerimeter=0;" edge="1" parent="1" source="2v5aTfsebNyCSrgBFrr8-5" target="2v5aTfsebNyCSrgBFrr8-7">
          <mxGeometry relative="1" as="geometry" />
        </mxCell>
        <mxCell id="2v5aTfsebNyCSrgBFrr8-15" style="edgeStyle=orthogonalEdgeStyle;rounded=0;orthogonalLoop=1;jettySize=auto;html=1;exitX=0.5;exitY=1;exitDx=0;exitDy=0;entryX=0.542;entryY=0.025;entryDx=0;entryDy=0;entryPerimeter=0;" edge="1" parent="1" source="2v5aTfsebNyCSrgBFrr8-5" target="2v5aTfsebNyCSrgBFrr8-13">
          <mxGeometry relative="1" as="geometry" />
        </mxCell>
        <mxCell id="2v5aTfsebNyCSrgBFrr8-17" value="SIM" style="edgeStyle=orthogonalEdgeStyle;rounded=0;orthogonalLoop=1;jettySize=auto;html=1;exitX=1;exitY=0.5;exitDx=0;exitDy=0;entryX=-0.011;entryY=0.625;entryDx=0;entryDy=0;entryPerimeter=0;" edge="1" parent="1" source="2v5aTfsebNyCSrgBFrr8-11" target="2v5aTfsebNyCSrgBFrr8-10">
          <mxGeometry relative="1" as="geometry" />
        </mxCell>
        <mxCell id="2v5aTfsebNyCSrgBFrr8-18" value="FIM" style="rounded=0;whiteSpace=wrap;html=1;" vertex="1" parent="1">
          <mxGeometry x="550" y="510" width="110" height="60" as="geometry" />
        </mxCell>
        <mxCell id="2v5aTfsebNyCSrgBFrr8-20" style="edgeStyle=orthogonalEdgeStyle;rounded=0;orthogonalLoop=1;jettySize=auto;html=1;exitX=1;exitY=0.5;exitDx=0;exitDy=0;entryX=0.573;entryY=1;entryDx=0;entryDy=0;entryPerimeter=0;" edge="1" parent="1" source="2v5aTfsebNyCSrgBFrr8-10" target="2v5aTfsebNyCSrgBFrr8-18">
          <mxGeometry relative="1" as="geometry" />
        </mxCell>
        <mxCell id="2v5aTfsebNyCSrgBFrr8-22" style="edgeStyle=orthogonalEdgeStyle;rounded=0;orthogonalLoop=1;jettySize=auto;html=1;exitX=0.5;exitY=1;exitDx=0;exitDy=0;entryX=0.458;entryY=0.067;entryDx=0;entryDy=0;entryPerimeter=0;" edge="1" parent="1" source="2v5aTfsebNyCSrgBFrr8-1" target="2v5aTfsebNyCSrgBFrr8-2">
          <mxGeometry relative="1" as="geometry" />
        </mxCell>
      </root>
    </mxGraphModel>
  </diagram>
</mxfile>
